PathFileType	4	(X/Y/Z)	C:/Users/opensim2020/Desktop/walking_exp_matlab/subject06_walking13_straight_02.trc																																																																																																																																																				
DataRate	CameraRate	NumFrames	NumMarkers	Units	OrigDataRate	OrigDataStartFrame	OrigNumFrames																																																																																																																																																
100	100	4	50	mm	100	1686	199																																																																																																																																																
Frame#	Time	LFHD			RFHD			LBHD			RBHD			C7			T10			CLAV			STRN			RBAK			LSHO			LUPA			LELB			LFRM			LWRA			LWRB			LFIN			RSHO			RUPA			RELB			RFRM			RWRA			RWRB			RFIN			LASI			RASI			LPSI			RPSI			LTHI			LKNE			LTIB			LANK			LHEE			LTOE			RTHI			RKNE			RTIB			RANK			RHEE			RTOE			*39			*40			*41			*42			*43			*44			*45			*46			*47			*48			*49		
		X1	Y1	Z1	X2	Y2	Z2	X3	Y3	Z3	X4	Y4	Z4	X5	Y5	Z5	X6	Y6	Z6	X7	Y7	Z7	X8	Y8	Z8	X9	Y9	Z9	X10	Y10	Z10	X11	Y11	Z11	X12	Y12	Z12	X13	Y13	Z13	X14	Y14	Z14	X15	Y15	Z15	X16	Y16	Z16	X17	Y17	Z17	X18	Y18	Z18	X19	Y19	Z19	X20	Y20	Z20	X21	Y21	Z21	X22	Y22	Z22	X23	Y23	Z23	X24	Y24	Z24	X25	Y25	Z25	X26	Y26	Z26	X27	Y27	Z27	X28	Y28	Z28	X29	Y29	Z29	X30	Y30	Z30	X31	Y31	Z31	X32	Y32	Z32	X33	Y33	Z33	X34	Y34	Z34	X35	Y35	Z35	X36	Y36	Z36	X37	Y37	Z37	X38	Y38	Z38	X39	Y39	Z39	X40	Y40	Z40	X41	Y41	Z41	X42	Y42	Z42	X43	Y43	Z43	X44	Y44	Z44	X45	Y45	Z45	X46	Y46	Z46	X47	Y47	Z47	X48	Y48	Z48	X49	Y49	Z49	X50	Y50	Z50
																																																																																																																																																							
150	1.49	563.37122	1654.26294	-1511.36499	556.24152	1642.59045	-1379.47424	425.61115	1611.42468	-1517.93506	420.76797	1605.3042	-1388.93323	411.6575	1446.05127	-1460.81958	389.55124	1113.65955	-1446.0647	523.1673	1371.20972	-1458.3374	571.04517	1197.3075	-1462.63269	341.78787	1270.83411	-1379.5636	468.19171	1402.27405	-1621.16577	438.84836	1203.58789	-1694.27283	413.82736	1093.64233	-1702.82605	410.77734	942.56189	-1719.50208	433.93774	819.29938	-1663.771	385.51807	826.14386	-1715.10718	403.23419	736.90173	-1703.55054	473.29623	1401.00378	-1298.18408	450.21121	1200.75916	-1210.19543	473.98184	1081.87817	-1198.64221	528.11804	975.94391	-1181.90015	643.22064	879.18793	-1209.0343	589.20087	853.09784	-1180.51196	653.19489	801.17383	-1172.22522	576.60559	963.5744	-1555.3634	569.92377	959.79321	-1334.57678	415.71426	984.44537	-1529.17175	419.94531	980.61884	-1361.19897	559.47919	652.11346	-1614.72327	598.58588	495.36804	-1583.20239	584.72839	238.23932	-1566.73425	588.11359	69.32386	-1519.96606	549.16949	56.23621	-1472.52429	732.9859	42.97187	-1518.70166	522.31848	615.85858	-1285.45801	529.63092	489.01657	-1301.73218	331.59598	323.99414	-1312.39233	181.43132	218.53949	-1357.76038	148.90665	243.93588	-1403.70703	203.23569	59.31529	-1371.02747	464.16843	1700.78796	-1455.99512	NaN	NaN	NaN	NaN	NaN	NaN	NaN	NaN	NaN	NaN	NaN	NaN	NaN	NaN	NaN	NaN	NaN	NaN	NaN	NaN	NaN	NaN	NaN	NaN	NaN	NaN	NaN	NaN	NaN	NaN
151	1.5	573.83075	1655.48486	-1511.30786	566.59534	1643.8125	-1379.4093	436.13678	1612.55371	-1517.94922	431.29312	1606.39319	-1388.99341	422.72073	1447.14514	-1460.73633	400.47919	1114.55322	-1447.28748	533.73535	1372.38782	-1458.42065	581.65369	1198.37158	-1463.15259	352.19229	1271.53967	-1380.88782	479.51611	1403.59717	-1621.53699	453.02832	1204.44104	-1695.29358	429.66849	1094.06555	-1704.31616	429.43683	942.95343	-1721.01306	454.60114	820.24011	-1665.44067	406.18484	826.21387	-1716.95435	425.65799	737.2959	-1705.3667	483.4444	1401.35583	-1298.28137	459.69275	1200.91321	-1210.66699	482.33963	1081.4751	-1198.95984	534.07135	973.95917	-1182.21265	646.15302	873.61456	-1208.69373	591.29828	849.35889	-1180.10376	653.61206	795.341	-1171.83215	587.63831	964.21497	-1556.44824	580.68732	960.95062	-1335.35046	426.741	985.19086	-1530.396	430.45621	981.20087	-1362.31079	568.06287	652.15515	-1614.88574	605.69733	495.17993	-1583.3125	587.06122	238.59462	-1566.13843	588.40155	69.55759	-1519.49182	549.25928	56.38109	-1472.41956	733.37738	42.67865	-1518.66162	539.21045	617.1936	-1286.14368	549.97638	490.67862	-1302.4259	353.96786	325.49951	-1311.11584	200.90401	223.76221	-1356.31506	168.52989	249.21243	-1402.71143	220.03667	64.13906	-1366.77759	474.4892	1701.93811	-1455.99963	NaN	NaN	NaN	NaN	NaN	NaN	NaN	NaN	NaN	NaN	NaN	NaN	NaN	NaN	NaN	NaN	NaN	NaN	NaN	NaN	NaN	NaN	NaN	NaN	NaN	NaN	NaN	NaN	NaN	NaN
152	1.51	584.24091	1656.67053	-1511.12842	576.92523	1644.91614	-1379.23962	446.60065	1613.64819	-1517.92029	441.62625	1607.44177	-1388.9978	433.09042	1448.40454	-1461.34338	411.10663	1115.45959	-1448.64185	544.21753	1373.42444	-1458.46899	592.24597	1199.49756	-1463.68579	362.42279	1272.25684	-1382.48486	490.68829	1404.88525	-1621.84033	467.22107	1205.19055	-1696.20886	445.77118	1094.4707	-1705.77954	448.50827	943.42194	-1722.51428	475.46176	821.1944	-1666.62756	427.33951	826.18445	-1718.64392	448.673	737.82819	-1707.19238	493.57693	1401.70959	-1298.26697	468.67075	1200.84302	-1211.11096	490.67279	1081.01221	-1199.3396	539.34271	972.01208	-1182.58752	648.9093	868.22949	-1208.11218	592.54688	845.56818	-1180.40759	653.46375	789.63141	-1171.50464	598.63922	964.89703	-1557.36865	591.41254	962.21246	-1336.09973	437.66907	985.94757	-1531.53015	440.97711	981.90955	-1363.42053	576.60162	652.40222	-1614.72339	612.60333	495.13055	-1583.48389	589.16571	238.92465	-1565.8822	588.7771	69.73697	-1519.11914	549.46423	56.55982	-1472.29602	733.81238	42.45713	-1518.71753	555.91815	618.67944	-1286.81824	570.15179	492.67517	-1303.08728	375.64554	326.65021	-1310.1969	220.2346	228.3952	-1355.42212	186.82716	252.42198	-1402.07349	242.85329	69.6601	-1362.09607	484.93466	1703.052	-1455.91333	NaN	NaN	NaN	NaN	NaN	NaN	NaN	NaN	NaN	NaN	NaN	NaN	NaN	NaN	NaN	NaN	NaN	NaN	NaN	NaN	NaN	NaN	NaN	NaN	NaN	NaN	NaN	NaN	NaN	NaN
153	1.52	594.65051	1657.73315	-1510.77576	587.18103	1645.92468	-1378.91455	457.09064	1614.65845	-1517.76611	452.01059	1608.24902	-1388.88391	443.55078	1449.45508	-1461.76892	421.74152	1116.33826	-1449.97998	554.77472	1374.37463	-1458.53003	602.66742	1200.50183	-1464.17676	372.64008	1272.97339	-1384.00757	501.8685	1406.02405	-1622.04492	481.44888	1205.98901	-1697.09094	462.05884	1094.8938	-1707.11792	467.87762	943.96338	-1723.96692	496.77731	822.31622	-1668.03601	448.99591	826.42767	-1720.46252	472.24149	738.5318	-1709.02942	503.75931	1401.92334	-1298.33704	477.59338	1200.8728	-1211.94897	498.79587	1080.63831	-1199.97668	544.66333	970.19208	-1182.96899	650.90729	862.96606	-1207.79004	593.7135	842.09045	-1180.30554	652.71259	784.15137	-1171.25378	609.83362	965.9173	-1558.32837	602.08032	963.58167	-1336.76318	448.46698	986.74701	-1532.53418	451.46542	982.67957	-1364.42529	585.37781	652.93842	-1614.66309	618.74896	494.93466	-1583.68445	591.42523	239.22804	-1565.95923	589.12665	69.89401	-1518.84668	549.57538	56.79755	-1472.1416	734.13495	42.27225	-1518.43896	572.38312	620.49225	-1287.40234	589.81042	494.81479	-1303.70007	396.17053	328.87662	-1309.79395	240.38078	231.89113	-1354.67236	205.21437	253.69379	-1401.37927	268.9577	74.29488	-1357.36023	495.29425	1703.96399	-1455.6438	NaN	NaN	NaN	NaN	NaN	NaN	NaN	NaN	NaN	NaN	NaN	NaN	NaN	NaN	NaN	NaN	NaN	NaN	NaN	NaN	NaN	NaN	NaN	NaN	NaN	NaN	NaN	NaN	NaN	NaN
